<svg xmlns="http://www.w3.org/2000/svg" width="20.968" height="16.501" viewBox="0 0 20.968 16.501"><path id="Path_49054" data-name="Path 49054" d="M15.717,18.75a1.5,1.5,0,1,0,3,0m-3,0a1.5,1.5,0,1,1,3,0m-3,0h-6m9,0h1.875a1.125,1.125,0,0,0,1.125-1.125V14.25m-17.25,4.5a1.5,1.5,0,1,0,3,0m-3,0a1.5,1.5,0,1,1,3,0m-3,0H3.342a1.072,1.072,0,0,1-1.09-1.124A17.9,17.9,0,0,1,5.465,8.433a2.056,2.056,0,0,1,1.58-.86H9.717M7.467,18.75h2.25m0-11.177V6.615A1.105,1.105,0,0,1,10.7,5.509a48.554,48.554,0,0,1,10.026,0,1.106,1.106,0,0,1,.987,1.106V14.25m-12-6.677V14.25m0,4.5v-4.5m0,0h12" transform="translate(-1.5 -4.499)" fill="none" stroke="#634b91" stroke-linecap="round" stroke-linejoin="round" stroke-width="1.5"></path></svg>