<svg xmlns="http://www.w3.org/2000/svg" width="17.242" height="16.598" viewBox="0 0 17.242 16.598"><path id="Path_17" data-name="Path 17" d="M25.393,27.439a.618.618,0,1,1-.618-.614.618.618,0,0,1,.618.614Zm-8,0a.612.612,0,1,0-.007,0ZM26.631,25.6H15.923a.385.385,0,0,1-.076-.76l10.869-1.7a.614.614,0,0,0,.514-.5l1.232-6.758a.611.611,0,0,0-.5-.716.625.625,0,0,0-.718.494l-.127.729H15.3l.027-.051A2.519,2.519,0,0,0,13.075,12.7H11.846a.62.62,0,0,0-.616.616.614.614,0,0,0,.616.614H13.08a1.285,1.285,0,0,1,1.149,1.856l-.474.938a.024.024,0,0,1,0,.02.7.7,0,0,0-.033.127.689.689,0,0,1-.024.113V17a.6.6,0,0,0,.02.107.411.411,0,0,0,.018.1l2.308,6.349-.389.062a1.605,1.605,0,0,0-.527,2.986,1.843,1.843,0,1,0,3.49.829,1.778,1.778,0,0,0-.116-.614h4.539a1.945,1.945,0,0,0-.109.614,1.847,1.847,0,1,0,3.586-.614h.113a.616.616,0,1,0,0-1.229Z" transform="translate(-11.23 -12.7)" fill="#fff" fill-rule="evenodd"></path></svg>