<svg xmlns="http://www.w3.org/2000/svg" width="12.941" height="13.238" viewBox="0 0 12.941 13.238">
  <g id="Group_4513" data-name="Group 4513" transform="translate(0 0.65)">
    <path id="Union_3" data-name="Union 3" d="M2.65,0A2.65,2.65,0,0,1,5.3,2.65V5.963a2.65,2.65,0,0,1-5.3,0V2.65A2.65,2.65,0,0,1,2.65,0Z" transform="translate(3.821)" fill="none" stroke="#fff" stroke-width="1.3"/>
    <g id="Rectangle_18167" data-name="Rectangle 18167" transform="translate(0 3.313)" fill="#2e631d" stroke="#fff" stroke-width="1.3">
      <path d="M0,0H12.941a0,0,0,0,1,0,0V5.275a4,4,0,0,1-4,4H4a4,4,0,0,1-4-4V0A0,0,0,0,1,0,0Z" stroke="none"/>
      <path d="M.65.65H12.291a0,0,0,0,1,0,0V5.275a3.35,3.35,0,0,1-3.35,3.35H4A3.35,3.35,0,0,1,.65,5.275V.65A0,0,0,0,1,.65.65Z" fill="none"/>
    </g>
  </g>
</svg>
