<svg xmlns="http://www.w3.org/2000/svg" width="20.2" height="19.732" viewBox="0 0 20.2 19.732"><path id="Icon_ionic-ios-heart" data-name="Icon ionic-ios-heart" d="M16.675,3.938h-.044a4.978,4.978,0,0,0-4.156,2.275A4.978,4.978,0,0,0,8.319,3.938H8.275a4.946,4.946,0,0,0-4.9,4.944,10.65,10.65,0,0,0,2.091,5.806,36.648,36.648,0,0,0,7.009,6.751,36.648,36.648,0,0,0,7.009-6.751,10.65,10.65,0,0,0,2.091-5.806A4.946,4.946,0,0,0,16.675,3.938Z" transform="translate(-2.375 -2.938)" fill="none" stroke="currentColor" stroke-width="2"></path></svg>