<?xml version="1.0" encoding="utf-8"?>
<!-- Svg Vector Icons : http://www.onlinewebfonts.com/icon -->
<!DOCTYPE svg PUBLIC "-//W3C//DTD SVG 1.1//EN" "http://www.w3.org/Graphics/SVG/1.1/DTD/svg11.dtd">
<svg version="1.1" xmlns="http://www.w3.org/2000/svg" xmlns:xlink="http://www.w3.org/1999/xlink" x="0px" y="0px" viewBox="0 0 256 256" enable-background="new 0 0 256 256" xml:space="preserve">
<metadata> Svg Vector Icons : http://www.onlinewebfonts.com/icon </metadata>
<g><g><path fill="#000000" d="M242,201.7L148.7,32.2c-5-9.1-12.5-14.3-20.7-14.3c-8.2,0-15.7,5.2-20.7,14.3L14,201.7c-4.9,9-5.3,18.1-1.1,25.3c4.2,7.2,12.5,11.2,22.8,11.2h184.6c10.2,0,18.5-4,22.8-11.2C247.3,219.8,246.9,210.6,242,201.7z M227.7,217.8c-0.9,1.5-3.8,2.4-7.4,2.4H35.7c-3.7,0-6.5-0.8-7.4-2.4c-0.9-1.5-0.4-4.4,1.4-7.7l93.3-169.4c1.9-3.5,4-5,5.1-5c1.1,0,3.2,1.6,5.1,5.1l93.3,169.4C228.1,213.4,228.7,216.3,227.7,217.8z"/><path fill="#000000" d="M127.8,80.8c-5.9,0-10.7,4.8-10.7,10.7v61.6c0,5.9,4.8,10.7,10.7,10.7c5.9,0,10.7-4.8,10.7-10.7V91.5C138.4,85.6,133.7,80.8,127.8,80.8z"/><path fill="#000000" d="M127.9,174.4c-2.8,0-5.6,1.2-7.6,3.1c-2,2-3.1,4.8-3.1,7.6c0,2.8,1.2,5.6,3.1,7.6c2,2,4.8,3.1,7.6,3.1s5.6-1.2,7.6-3.1s3.1-4.8,3.1-7.6c0-2.8-1.2-5.6-3.1-7.6S130.7,174.4,127.9,174.4z"/></g></g>
</svg>