<svg xmlns="http://www.w3.org/2000/svg" width="22.636" height="22.638" viewBox="0 0 22.636 22.638"><path d="M19.1,25.232H4.877A3.131,3.131,0,0,1,1.75,22.1V7.877A3.127,3.127,0,0,1,4.877,4.75h7.114a1.095,1.095,0,0,1,0,2.189H4.877a.938.938,0,0,0-.938.938V22.1a.939.939,0,0,0,.938.938H19.1a.939.939,0,0,0,.938-.938V14.991a1.095,1.095,0,1,1,2.189,0V22.1A3.131,3.131,0,0,1,19.1,25.232Z" transform="translate(-1.75 -2.594)" fill="#54a85e"/><path d="M24.04,1.568a3.25,3.25,0,0,1,2.3,5.549l-9.655,9.655a1.1,1.1,0,0,1-.508.288L12.11,18.075a1.095,1.095,0,0,1-1.327-1.327L11.8,12.683a1.1,1.1,0,0,1,.288-.508L21.741,2.52A3.229,3.229,0,0,1,24.04,1.568ZM15.35,15.009l9.44-9.44a1.061,1.061,0,0,0-1.5-1.5l-9.44,9.44-.5,2Z" transform="translate(-4.652 -1.568)" fill="#54a85e"/></svg>