<svg xmlns="http://www.w3.org/2000/svg" xmlns:xlink="http://www.w3.org/1999/xlink" width="242.568" height="50.45" viewBox="0 0 242.568 50.45">
  <defs>
    <clipPath id="clip-path">
      <rect id="Rectangle_77" data-name="Rectangle 77" width="242.568" height="50.45" fill="#344d65"/>
    </clipPath>
  </defs>
  <g id="Group_125" data-name="Group 125" clip-path="url(#clip-path)">
    <path id="Path_66" data-name="Path 66" d="M413.428,127.428l1.076-1.28a4.686,4.686,0,0,0,3.213,1.323c1.105,0,1.8-.509,1.8-1.28v-.029c0-.727-.407-1.12-2.3-1.556-2.166-.524-3.388-1.163-3.388-3.039v-.029c0-1.745,1.454-2.952,3.475-2.952a5.642,5.642,0,0,1,3.693,1.28l-.96,1.352a4.623,4.623,0,0,0-2.763-1.047c-1.047,0-1.658.538-1.658,1.207v.029c0,.785.465,1.134,2.414,1.6,2.152.523,3.272,1.294,3.272,2.981v.029c0,1.9-1.5,3.039-3.635,3.039a6.27,6.27,0,0,1-4.246-1.629" transform="translate(-274.144 -78.635)" fill="#344d65"/>
    <path id="Path_67" data-name="Path 67" d="M447.394,119.019h1.789v5.118l4.842-5.118h2.2l-4.231,4.377,4.42,5.8h-2.167l-3.475-4.58-1.585,1.629V129.2h-1.789Z" transform="translate(-296.667 -78.921)" fill="#344d65"/>
    <rect id="Rectangle_75" data-name="Rectangle 75" width="1.789" height="10.178" transform="translate(163.264 40.097)" fill="#344d65"/>
    <path id="Path_68" data-name="Path 68" d="M503.612,119.019h1.658l5.453,7.037v-7.037h1.759V129.2h-1.5l-5.613-7.241V129.2h-1.759Z" transform="translate(-333.945 -78.921)" fill="#344d65"/>
    <path id="Path_69" data-name="Path 69" d="M550.746,127.83h-2.792v-1.614h2.792v-2.763H552.4v2.763H555.2v1.614H552.4v2.777h-1.658Z" transform="translate(-363.349 -81.862)" fill="#344d65"/>
    <path id="Path_70" data-name="Path 70" d="M585.606,123.794v-.029a5.15,5.15,0,0,1,5.249-5.264,5.305,5.305,0,0,1,3.984,1.585l-1.148,1.323a4.048,4.048,0,0,0-2.85-1.265,3.416,3.416,0,0,0-3.359,3.591v.029a3.442,3.442,0,0,0,3.359,3.62,3.991,3.991,0,0,0,2.923-1.323l1.148,1.163a5.253,5.253,0,0,1-4.129,1.8,5.119,5.119,0,0,1-5.176-5.234" transform="translate(-388.316 -78.578)" fill="#344d65"/>
    <path id="Path_71" data-name="Path 71" d="M625,118.8h1.658l4.478,10.251h-1.89l-1.032-2.457H623.4l-1.047,2.457H620.52Zm2.559,6.209-1.759-4.071-1.745,4.071Z" transform="translate(-411.467 -78.778)" fill="#344d65"/>
    <path id="Path_72" data-name="Path 72" d="M661.52,119.019h4.537a4.1,4.1,0,0,1,2.937,1.018,3.076,3.076,0,0,1,.843,2.2v.029a3.054,3.054,0,0,1-2.428,3.083l2.748,3.853h-2.109l-2.5-3.548h-2.239V129.2H661.52Zm4.406,5.045c1.28,0,2.094-.669,2.094-1.7v-.029c0-1.091-.785-1.687-2.108-1.687h-2.6v3.417Z" transform="translate(-438.654 -78.922)" fill="#344d65"/>
    <path id="Path_73" data-name="Path 73" d="M697.385,119.019h7.546v1.6h-5.758v2.646h5.1v1.6h-5.1V127.6H705v1.6h-7.619Z" transform="translate(-462.436 -78.921)" fill="#344d65"/>
    <rect id="Rectangle_76" data-name="Rectangle 76" width="122.809" height="1.614" transform="translate(12.402 44.341)" fill="#344d65"/>
    <path id="Path_74" data-name="Path 74" d="M18.13,0A12.81,12.81,0,0,0,7.491,5.541V.316L0,1.827V45.956H7.491V8.185C9.317,4.534,12.4,2.267,15.8,2.267c5.351,0,9,5.666,9,14.1,0,8.5-3.714,14.1-9.191,14.1a8.176,8.176,0,0,1-4.919-1.678v1.825A13.515,13.515,0,0,0,18,32.736c8.121,0,14.542-7.051,14.542-16.368S26.125,0,18.13,0" transform="translate(0 -0.001)" fill="#344d65"/>
    <path id="Path_75" data-name="Path 75" d="M139.851,24.542c-1.574,3.714-5.1,6.232-8.562,6.232a6,6,0,0,1-6.169-6.232V.935l-7.491,1.511V22.78c0,6.043,4.721,10.576,11.017,10.576A13.066,13.066,0,0,0,139.851,27v5.729h7.491V.935l-7.491,1.511Z" transform="translate(-78 -0.62)" fill="#344d65"/>
    <path id="Path_76" data-name="Path 76" d="M432.994,25.791,422.608,1.869h-7.869l13.787,31.476h2.9L445.207,1.869h-1.763Z" transform="translate(-275.013 -1.239)" fill="#344d65"/>
    <path id="Path_77" data-name="Path 77" d="M648.573,1.827V5.478A12.829,12.829,0,0,0,637.934,0C630,0,623.581,7.052,623.581,16.369s6.358,16.368,14.479,16.368a13.515,13.515,0,0,0,7.311-2.119V28.841a8.2,8.2,0,0,1-4.856,1.629c-5.54,0-9.191-5.6-9.191-14.1,0-8.436,3.651-14.1,9-14.1,3.4,0,6.421,2.2,8.247,5.792V32.106h7.492V.316Z" transform="translate(-413.497 -0.001)" fill="#344d65"/>
    <path id="Path_78" data-name="Path 78" d="M342.819,15.3c0-8.687-6.3-15.3-15.235-15.3a16.153,16.153,0,0,0-16.494,16.3c0,9.317,7.3,16.431,17.69,16.431,7.136,0,13.091-3.426,13.453-7.992v0a4.038,4.038,0,0,0,.03-.478,3.828,3.828,0,0,0-.441-1.789c-.03-.052-.056-.1-.089-.159s-.059-.1-.093-.152a2.574,2.574,0,0,0-.222-.3l-.1-.122a3.867,3.867,0,1,0-2.922,6.4c.1,0,.189,0,.285-.011a10.6,10.6,0,0,1-7.824,2.914c-7.555,0-12.024-5.414-12.024-15.486V15.3Zm-15.3-14.038c4.784,0,7.869,4.847,8.058,12.779H318.9c.378-7.491,3.651-12.779,8.625-12.779" transform="translate(-206.285)" fill="#344d65"/>
    <path id="Path_79" data-name="Path 79" d="M541.7,15.3c0-8.687-6.3-15.3-15.231-15.3a16.153,16.153,0,0,0-16.494,16.3c0,9.317,7.3,16.431,17.686,16.431,7.084,0,13-3.374,13.442-7.884V24.84a3.715,3.715,0,0,0,.044-.577,3.814,3.814,0,0,0-.726-2.248c-.037-.048-.07-.1-.107-.141a3.866,3.866,0,1,0-3.036,6.258q.144,0,.289-.011a10.611,10.611,0,0,1-7.824,2.914c-7.555,0-12.024-5.414-12.024-15.486V15.3ZM526.41,1.259c4.784,0,7.869,4.847,8.058,12.779H517.785c.378-7.491,3.651-12.779,8.625-12.779" transform="translate(-338.167)" fill="#344d65"/>
    <path id="Path_80" data-name="Path 80" d="M246.241,0a10.023,10.023,0,0,0-9.065,6.358V.315l-7.491,1.511v30.28h7.491V9.065c1.385-4.659,4.848-7.68,8.814-7.68a5.6,5.6,0,0,1,3.525,1.07H249.5a3.868,3.868,0,1,0,3.91,3.977,1.109,1.109,0,0,0,0-.111c0-.067,0-.133,0-.2C253.358,2.588,250.54,0,246.241,0" transform="translate(-152.304)" fill="#344d65"/>
  </g>
</svg>
