<svg xmlns="http://www.w3.org/2000/svg" width="18.04" height="18.806" viewBox="0 0 18.04 18.806"><g transform="translate(0.248 0.249)"><g transform="translate(0 0)"><path d="M73.379,65.179a.611.611,0,0,1,.864,0l4.079,4.079,6.968,6.968,2.025,2.025L90.564,81.5a.611.611,0,0,1-.864.864l-2.839-2.839a7.038,7.038,0,0,1-4.278,1.37v1.851a.61.61,0,1,1-1.221,0V80.9a6.436,6.436,0,0,1-4.958-2.045c-1.161-1.395-1.568-3.409-1.568-5.9a.61.61,0,0,1,1.221,0c0,2.407.407,4.059,1.285,5.117.859,1.037,2.278,1.623,4.63,1.623a6.517,6.517,0,0,0,4.02-1.032L84.833,77.5a4.7,4.7,0,0,1-7.553-3.727V69.943l-3.9-3.9A.617.617,0,0,1,73.379,65.179Zm5.126,5.99v2.6a3.469,3.469,0,0,0,5.449,2.849Zm.149-4.794a4.7,4.7,0,0,1,8.015,3.32v4.079H85.443V69.695a3.467,3.467,0,0,0-5.92-2.452Zm9.851,5.97a.61.61,0,0,1,.61.61,14.591,14.591,0,0,1-.293,3.117l-1.2-.263a13.369,13.369,0,0,0,.263-2.854A.611.611,0,0,1,88.5,72.345Z" transform="translate(-73.2 -65)" fill="#fcfefe" stroke="#344d65" stroke-width="0.4" fill-rule="evenodd"/></g></g></svg>