<svg xmlns="http://www.w3.org/2000/svg" width="18.005" height="19.641" viewBox="0 0 18.005 19.641"><g id="Cube_projected" data-name="Cube projected" transform="translate(-6.5 -3.5)"><path id="Path_49052" data-name="Path 49052" d="M15.158,3.576a.818.818,0,0,1,.688,0l8.184,3.79a.818.818,0,0,1,.475.743v9.476a.818.818,0,0,1-.408.708l-8.184,4.738a.818.818,0,0,1-.82,0L6.908,18.293a.818.818,0,0,1-.408-.708V8.109a.818.818,0,0,1,.474-.743ZM8.137,9.435l6.547,3.285V20.9l-6.547-3.79ZM16.321,20.9l6.547-3.79V9.435L16.321,12.72ZM15.5,11.3l6.3-3.161L15.5,5.22,9.2,8.138Z" transform="translate(0 0)" fill="#634b91" fill-rule="evenodd"></path></g></svg>