<svg xmlns="http://www.w3.org/2000/svg" width="28.168" height="20.766" viewBox="0 0 28.168 20.766">
  <path id="Path_171" data-name="Path 171" d="M16.45,53.522l6.016-5.612H6.249L12.3,53.558a.821.821,0,0,1,.262.6h0V65.375h3.579V54.161A.822.822,0,0,1,16.45,53.522ZM28.817,47.91a.825.825,0,0,1,0-1.65h1.857a.825.825,0,0,1,0,1.65Zm-5.333,9.558a.825.825,0,1,1,0-1.65h7.189a.825.825,0,0,1,0,1.65Zm-2.07,9.558a.825.825,0,1,1,0-1.65h9.258a.825.825,0,1,1,0,1.65Zm3.7-19.338L17.8,54.518V66.2a.825.825,0,0,1-.825.825H11.742a.825.825,0,0,1-.825-.825V54.518L3.634,47.725a.825.825,0,0,1,.522-1.464h20.4v0a.823.823,0,0,1,.561,1.425Z" transform="translate(-3.33 -46.26)" fill="#344d65"/>
</svg>
