<svg xmlns="http://www.w3.org/2000/svg" width="19.5" height="21" viewBox="0 0 19.5 21"><path id="Path_16" data-name="Path 16" d="M6.72,13.829q-.36.045-.72.1m.72-.1a42.415,42.415,0,0,1,10.56,0m-10.56,0L6.34,18m10.94-4.171q.36.045.72.1m-.72-.1L17.66,18m0,0,.229,2.523a1.125,1.125,0,0,1-1.12,1.227H7.231a1.124,1.124,0,0,1-1.12-1.227L6.34,18m11.318,0h1.091A2.25,2.25,0,0,0,21,15.75V9.456a2.179,2.179,0,0,0-1.837-2.175q-.954-.143-1.913-.247M6.34,18H5.25A2.25,2.25,0,0,1,3,15.75V9.456A2.179,2.179,0,0,1,4.837,7.281q.954-.143,1.913-.247m10.5,0a48.536,48.536,0,0,0-10.5,0m10.5,0V3.375A1.125,1.125,0,0,0,16.125,2.25H7.875A1.125,1.125,0,0,0,6.75,3.375V7.034M18,10.5h.008v.008H18Zm-3,0h.008v.008H15Z" transform="translate(-2.25 -1.5)" fill="none" stroke="#273721" stroke-linecap="round" stroke-linejoin="round" stroke-width="1.5"></path></svg>