<svg xmlns="http://www.w3.org/2000/svg" width="18.474" height="18.133" viewBox="0 0 18.474 18.133"><path d="M12.646-.78,15.2,1.345a.476.476,0,0,1-.609.731L12.512.348V7.162a.476.476,0,0,1-.951,0V.348L9.488,2.076a.476.476,0,0,1-.609-.731L11.428-.78A.951.951,0,0,1,12.646-.78ZM9.183,15.742a.476.476,0,0,0,0,.951h5.707a.476.476,0,0,0,0-.951H12.512v-.951h6.659a1.9,1.9,0,0,0,1.9-1.9V5.278a1.9,1.9,0,0,0-1.9-1.9h-3.56v.951h3.56a.951.951,0,0,1,.951.951v7.61a.951.951,0,0,1-.951.951H4.9a.951.951,0,0,1-.951-.951V5.278A.951.951,0,0,1,4.9,4.327H8.515V3.376H4.9A1.9,1.9,0,0,0,3,5.278v7.61a1.9,1.9,0,0,0,1.9,1.9h6.659v.951Z" transform="translate(-2.8 1.24)" fill="#fbfeff" stroke="#fbfeff" stroke-width="0.4" fill-rule="evenodd"/></svg>