<svg xmlns="http://www.w3.org/2000/svg" width="25.875" height="23" viewBox="0 0 25.875 23"><path d="M25.537,7.971,19.068,14.08A1.079,1.079,0,0,1,17.25,13.3V10.063c-6.495.044-9.234,1.577-7.4,7.7a.719.719,0,0,1-1.123.778A8.647,8.647,0,0,1,5.391,12.1c0-6.466,5.283-7.749,11.859-7.786V1.079A1.079,1.079,0,0,1,19.068.295L25.537,6.4A1.078,1.078,0,0,1,25.537,7.971Zm-8.287,9.06v3.094H2.875V5.75H5.162a.539.539,0,0,0,.388-.166A8.757,8.757,0,0,1,7.842,3.892a.539.539,0,0,0-.249-1.017H2.156A2.156,2.156,0,0,0,0,5.031V20.844A2.156,2.156,0,0,0,2.156,23H17.969a2.156,2.156,0,0,0,2.156-2.156V16.854a.539.539,0,0,0-.719-.508,3.227,3.227,0,0,1-1.536.152A.54.54,0,0,0,17.25,17.031Z" fill="#91a8a1"/></svg>