<svg xmlns="http://www.w3.org/2000/svg" width="22.414" height="16.503" viewBox="0 0 22.414 16.503"><path d="M9.52,15.578l-4.6-3.736H1.353A1.343,1.343,0,0,1,0,10.513V5.373a1.343,1.343,0,0,1,1.353-1.33h3.57L9.523.308A1.358,1.358,0,0,1,10.96.129a1.319,1.319,0,0,1,.777,1.2v13.22a1.319,1.319,0,0,1-.777,1.2,1.387,1.387,0,0,1-.581.129A1.356,1.356,0,0,1,9.52,15.578ZM1.661,10.207H5.032a1.38,1.38,0,0,1,.862.306L10.071,13.9V1.976L5.894,5.371a1.365,1.365,0,0,1-.862.306H1.661Zm16.991,4.111a.807.807,0,0,1-.2-1.139,8.928,8.928,0,0,0,0-10.475.809.809,0,0,1,.2-1.139v0a.842.842,0,0,1,1.158.2,10.542,10.542,0,0,1,0,12.365.835.835,0,0,1-.68.346A.844.844,0,0,1,18.652,14.318Zm-3.92-2.37v0a.808.808,0,0,1-.138-1.148,4.538,4.538,0,0,0,0-5.715.809.809,0,0,1,.138-1.148.843.843,0,0,1,1.168.136,6.151,6.151,0,0,1,0,7.739.841.841,0,0,1-1.168.134Z" transform="translate(0.3 0.319)" fill="#fbfeff" stroke="#344d65" stroke-width="0.6"/></svg>