<svg xmlns="http://www.w3.org/2000/svg" width="13.538" height="17" viewBox="0 0 13.538 17"><g id="Group_38" data-name="Group 38" transform="translate(-19.527 -11.734)"><path id="Path_18" data-name="Path 18" d="M26.3,11.734A6.769,6.769,0,0,0,19.527,18.5c0,5.626,6.769,10.232,6.769,10.232S33.065,23.79,33.065,18.5A6.768,6.768,0,0,0,26.3,11.734Zm1.375,5.907a.082.082,0,0,0-.034-.068l-3.074-2.248a.084.084,0,0,0-.1,0l-1.38.954a.083.083,0,0,0-.036.068.082.082,0,0,0,.036.068L26.249,18.6a.083.083,0,0,0,.095,0l1.291-.892a.083.083,0,0,0,.036-.067Zm2.024-.877a.085.085,0,0,0-.086.005l-3.1,2.143a.082.082,0,0,0-.036.069V22.27a.084.084,0,0,0,.045.074.082.082,0,0,0,.039.009.087.087,0,0,0,.048-.015l3.1-2.143a.083.083,0,0,0,.036-.069V16.838a.084.084,0,0,0-.045-.074Zm-3.609,2.149-3.1-2.143a.083.083,0,0,0-.131.068v3.288a.083.083,0,0,0,.036.069l3.1,2.143a.087.087,0,0,0,.048.015.082.082,0,0,0,.039-.009.084.084,0,0,0,.045-.074V18.982a.083.083,0,0,0-.035-.069Zm-1.131-3.793,3.074,2.248a.088.088,0,0,0,.05.016.083.083,0,0,0,.047-.015l1.382-.955a.083.083,0,0,0,0-.137l-3.164-2.186a.085.085,0,0,0-.095,0l-1.292.893a.085.085,0,0,0-.036.068.084.084,0,0,0,.034.068Z" fill="#634b91" fill-rule="evenodd"></path></g></svg>