<svg xmlns="http://www.w3.org/2000/svg" width="22.125" height="25.25" viewBox="0 0 22.125 25.25">
    <g id="Group_5" data-name="Group 5" transform="translate(-11.375 -6.175)">
        <g id="Group_2" data-name="Group 2" transform="translate(16.415 6.3)">
            <path id="Path_8" data-name="Path 8" d="M34.823,18.345a6.023,6.023,0,1,1,6.023-6.023A6.026,6.026,0,0,1,34.823,18.345Zm0-10.625a4.6,4.6,0,1,0,4.6,4.6A4.619,4.619,0,0,0,34.823,7.72Z" transform="translate(-28.8 -6.3)" fill="currentColor" />
            <path id="Path_8_-_Outline" data-name="Path 8 - Outline" d="M34.823,18.47a6.148,6.148,0,1,1,6.148-6.148A6.155,6.155,0,0,1,34.823,18.47Zm0-12.045a5.9,5.9,0,1,0,5.9,5.9A5.9,5.9,0,0,0,34.823,6.425Zm0,10.625a4.727,4.727,0,1,1,4.727-4.727A4.733,4.733,0,0,1,34.823,17.05Zm0-9.2A4.477,4.477,0,1,0,39.3,12.323,4.482,4.482,0,0,0,34.823,7.845Z" transform="translate(-28.8 -6.3)" fill="#344d65" />
        </g>
        <g id="Group_3" data-name="Group 3" transform="translate(11.5 19.652)">
            <path id="Path_9" data-name="Path 9" d="M32.665,64.948H12.21a.7.7,0,0,1-.71-.71,10.938,10.938,0,0,1,21.875-.085v.085A.722.722,0,0,1,32.665,64.948Zm-19.716-1.42H31.926a9.515,9.515,0,0,0-18.977,0Z" transform="translate(-11.5 -53.3)" fill="currentColor" />
            <path id="Path_9_-_Outline" data-name="Path 9 - Outline" d="M32.665,65.073H12.21a.826.826,0,0,1-.835-.835A11.063,11.063,0,0,1,33.5,64.151v.086A.846.846,0,0,1,32.665,65.073ZM22.438,53.425A10.825,10.825,0,0,0,11.625,64.238a.579.579,0,0,0,.585.585H32.665a.593.593,0,0,0,.585-.585v-.085A10.836,10.836,0,0,0,22.438,53.425Zm9.623,10.227H12.814l.01-.134a9.641,9.641,0,0,1,19.227,0ZM13.085,63.4H31.79a9.391,9.391,0,0,0-18.706,0Z" transform="translate(-11.5 -53.3)" fill="#344d65" />
        </g>
    </g>
</svg>