<svg xmlns="http://www.w3.org/2000/svg" width="20.805" height="13.262" viewBox="0 0 20.805 13.262"><path d="M32.486,26.58a1.273,1.273,0,0,0-1.326.055L27.1,29.26V28.21A2.217,2.217,0,0,0,24.888,26H14.61a2.217,2.217,0,0,0-2.21,2.21v8.841a2.217,2.217,0,0,0,2.21,2.21H24.888a2.217,2.217,0,0,0,2.21-2.21V36l4.061,2.625a1.288,1.288,0,0,0,1.354.055,1.336,1.336,0,0,0,.691-1.188V27.8A1.429,1.429,0,0,0,32.486,26.58ZM25.994,37.052a1.108,1.108,0,0,1-1.105,1.105H14.61a1.108,1.108,0,0,1-1.105-1.105V28.21a1.108,1.108,0,0,1,1.105-1.105H24.888a1.108,1.108,0,0,1,1.105,1.105Zm6.078.414a.228.228,0,0,1-.138.221.206.206,0,0,1-.221,0L27.1,34.676V30.586l4.669-3.012a.211.211,0,0,1,.221,0,.279.279,0,0,1,.138.221v9.67Z" transform="translate(-12.4 -26)" fill="#fcfefe"/></svg>