<svg xmlns="http://www.w3.org/2000/svg" width="35.601" height="26.115" viewBox="0 0 35.601 26.115"><path d="M15.276,25,7.895,19H2.171A2.155,2.155,0,0,1,0,16.868V8.621A2.155,2.155,0,0,1,2.171,6.488H7.9L15.279.494A2.179,2.179,0,0,1,17.586.206a2.116,2.116,0,0,1,1.247,1.93V23.349a2.116,2.116,0,0,1-1.247,1.93,2.225,2.225,0,0,1-.931.207A2.176,2.176,0,0,1,15.276,25ZM2.665,16.378H8.074a2.214,2.214,0,0,1,1.384.49l6.7,5.443V3.171l-6.7,5.447a2.19,2.19,0,0,1-1.384.491H2.665Zm27.262,6.6a1.3,1.3,0,0,1-.32-1.827,14.325,14.325,0,0,0,0-16.807,1.3,1.3,0,0,1,.32-1.827V2.5a1.35,1.35,0,0,1,1.859.314,16.915,16.915,0,0,1,0,19.841,1.34,1.34,0,0,1-1.091.555A1.354,1.354,0,0,1,29.928,22.973Zm-6.29-3.8v0a1.3,1.3,0,0,1-.222-1.843,7.281,7.281,0,0,0,0-9.17,1.3,1.3,0,0,1,.222-1.842,1.353,1.353,0,0,1,1.875.218,9.87,9.87,0,0,1,0,12.418,1.35,1.35,0,0,1-1.875.215Z" transform="translate(0.3 0.329)" fill="#fbfeff" stroke="#344d65" stroke-width="0.6"/></svg>