<svg xmlns="http://www.w3.org/2000/svg" width="13.488" height="13.17" viewBox="0 0 13.488 13.17">
  <path id="Icon_ionic-ios-heart" data-name="Icon ionic-ios-heart" d="M12.281,3.937h-.029A3.333,3.333,0,0,0,9.469,5.461,3.333,3.333,0,0,0,6.686,3.937H6.656A3.312,3.312,0,0,0,3.375,7.248a7.131,7.131,0,0,0,1.4,3.888,24.541,24.541,0,0,0,4.693,4.521,24.541,24.541,0,0,0,4.693-4.521,7.131,7.131,0,0,0,1.4-3.888A3.312,3.312,0,0,0,12.281,3.937Z" transform="translate(-2.725 -3.287)" fill="none" stroke="#fff" stroke-width="1.3"/>
</svg>
