<svg xmlns="http://www.w3.org/2000/svg" xmlns:xlink="http://www.w3.org/1999/xlink" width="40" height="54" viewBox="0 0 40 54">
  <defs>
    <clipPath id="clip-path">
      <rect id="Rectangle_19118" data-name="Rectangle 19118" width="40" height="40" transform="translate(-0.121 0.44)" fill="none"/>
    </clipPath>
  </defs>
  <g id="Group_7209" data-name="Group 7209" transform="translate(20713 13123)">
    <g id="Group_7207" data-name="Group 7207" transform="translate(-20712.879 -13123.437)">
      <g id="Group_7206" data-name="Group 7206" transform="translate(0 -0.004)" clip-path="url(#clip-path)">
        <g id="Group_7208" data-name="Group 7208" transform="translate(4.878 1)">
          <path id="Path_52942" data-name="Path 52942" d="M51.064,78.106a62.982,62.982,0,0,0,6.86-4.554,19.352,19.352,0,0,0,7.517-15.315V48.186c-6.917-1.126-14.377-5.55-14.377-5.55s-7.46,4.424-14.377,5.55V58.237A19.352,19.352,0,0,0,44.2,73.552a62.981,62.981,0,0,0,6.86,4.554" transform="translate(-35.469 -41.221)" fill="#2d631d"/>
          <path id="Path_52943" data-name="Path 52943" d="M15.6,38.291l-.612-.356A64.633,64.633,0,0,1,7.99,33.292,20.57,20.57,0,0,1,0,17.013V5.926l1.022-.166C7.624,4.685,14.9.407,14.974.364L15.6,0l.621.368c.072.043,7.35,4.321,13.952,5.4l1.022.166V17.013A20.57,20.57,0,0,1,23.2,33.292a64.628,64.628,0,0,1-6.993,4.643ZM2.436,7.976v9.037A18.25,18.25,0,0,0,9.48,31.364,60.825,60.825,0,0,0,15.6,35.469a60.826,60.826,0,0,0,6.116-4.105,18.25,18.25,0,0,0,7.043-14.351V7.976A50.489,50.489,0,0,1,15.6,2.815,50.489,50.489,0,0,1,2.436,7.976" transform="translate(0 0.444)" fill="#2d631d"/>
          <path id="Path_52944" data-name="Path 52944" d="M67.382,99l-.367-.213a58.447,58.447,0,0,1-6.324-4.2,18.344,18.344,0,0,1-7.126-14.518V70.3l.613-.1c6.082-.99,12.764-4.919,12.831-4.959l.373-.221.373.221c.067.04,6.749,3.969,12.831,4.959l.613.1v9.77A18.344,18.344,0,0,1,74.073,94.59a58.443,58.443,0,0,1-6.324,4.2ZM55.027,71.536v8.536a16.991,16.991,0,0,0,6.558,13.361,56.173,56.173,0,0,0,5.8,3.877,56.174,56.174,0,0,0,5.8-3.877,16.991,16.991,0,0,0,6.558-13.361V71.536a45.268,45.268,0,0,1-12.355-4.821,45.269,45.269,0,0,1-12.355,4.821" transform="translate(-51.787 -62.863)" fill="#fff"/>
          <path id="Path_52945" data-name="Path 52945" d="M295.53,508.05H286.85A1,1,0,0,1,285.9,507v-5.776a1,1,0,0,1,.948-1.051h8.681a1,1,0,0,1,.948,1.051V507a1,1,0,0,1-.948,1.051" transform="translate(-275.596 -483.38)" fill="#fff"/>
          <path id="Path_52946" data-name="Path 52946" d="M353.819,316.3h-1.377V314.36a2.19,2.19,0,0,0-2.132-2.24h-.057a2.19,2.19,0,0,0-2.132,2.24V316.3h-1.377V314.36a3.568,3.568,0,0,1,3.509-3.617h.057a3.568,3.568,0,0,1,3.509,3.617Z" transform="translate(-334.686 -299.399)" fill="#fff"/>
          <path id="Path_52947" data-name="Path 52947" d="M444.211,585.79a.89.89,0,1,0-.89.89.89.89,0,0,0,.89-.89" transform="translate(-427.742 -565.48)" fill="#2d631d"/>
          <path id="Path_52948" data-name="Path 52948" d="M444.547,624.166h-.632l-.526,2.229h1.685Z" transform="translate(-428.668 -603.442)" fill="#2d631d"/>
        </g>
      </g>
    </g>
    <text id="SECURE" transform="translate(-20710 -13072)" fill="#2e631d" font-size="9" font-family="OpenSans-Bold, Open Sans" font-weight="700"><tspan x="0" y="0">SECURE</tspan></text>
  </g>
</svg>
